<?xml version="1.0" standalone="no"?>
<svg xmlns:xlink="http://www.w3.org/1999/xlink" id="wave" style="transform:rotate(0deg); transition: 0.3s" viewBox="0 0 1440 490" version="1.1" xmlns="http://www.w3.org/2000/svg"><defs><linearGradient id="sw-gradient-0" x1="0" x2="0" y1="1" y2="0"><stop stop-color="rgba(34.948, 141.526, 196.124, 1)" offset="0%"/><stop stop-color="rgba(146.034, 116.615, 51.581, 1)" offset="100%"/></linearGradient></defs><path style="transform:translate(0, 0px); opacity:1" fill="url(#sw-gradient-0)" d="M0,196L20,171.5C40,147,80,98,120,122.5C160,147,200,245,240,269.5C280,294,320,245,360,236.8C400,229,440,261,480,261.3C520,261,560,229,600,253.2C640,278,680,359,720,375.7C760,392,800,343,840,326.7C880,310,920,327,960,285.8C1000,245,1040,147,1080,155.2C1120,163,1160,278,1200,343C1240,408,1280,425,1320,424.7C1360,425,1400,408,1440,400.2C1480,392,1520,392,1560,367.5C1600,343,1640,294,1680,228.7C1720,163,1760,82,1800,65.3C1840,49,1880,98,1920,147C1960,196,2000,245,2040,220.5C2080,196,2120,98,2160,57.2C2200,16,2240,33,2280,57.2C2320,82,2360,114,2400,171.5C2440,229,2480,310,2520,310.3C2560,310,2600,229,2640,204.2C2680,180,2720,212,2760,204.2C2800,196,2840,147,2860,122.5L2880,98L2880,490L2860,490C2840,490,2800,490,2760,490C2720,490,2680,490,2640,490C2600,490,2560,490,2520,490C2480,490,2440,490,2400,490C2360,490,2320,490,2280,490C2240,490,2200,490,2160,490C2120,490,2080,490,2040,490C2000,490,1960,490,1920,490C1880,490,1840,490,1800,490C1760,490,1720,490,1680,490C1640,490,1600,490,1560,490C1520,490,1480,490,1440,490C1400,490,1360,490,1320,490C1280,490,1240,490,1200,490C1160,490,1120,490,1080,490C1040,490,1000,490,960,490C920,490,880,490,840,490C800,490,760,490,720,490C680,490,640,490,600,490C560,490,520,490,480,490C440,490,400,490,360,490C320,490,280,490,240,490C200,490,160,490,120,490C80,490,40,490,20,490L0,490Z"/><defs><linearGradient id="sw-gradient-1" x1="0" x2="0" y1="1" y2="0"><stop stop-color="rgba(62, 138.769, 243, 1)" offset="0%"/><stop stop-color="rgba(11, 164.081, 255, 1)" offset="100%"/></linearGradient></defs><path style="transform:translate(0, 50px); opacity:0.9" fill="url(#sw-gradient-1)" d="M0,392L20,359.3C40,327,80,261,120,269.5C160,278,200,359,240,367.5C280,376,320,310,360,253.2C400,196,440,147,480,147C520,147,560,196,600,220.5C640,245,680,245,720,204.2C760,163,800,82,840,106.2C880,131,920,261,960,302.2C1000,343,1040,294,1080,228.7C1120,163,1160,82,1200,40.8C1240,0,1280,0,1320,57.2C1360,114,1400,229,1440,261.3C1480,294,1520,245,1560,196C1600,147,1640,98,1680,106.2C1720,114,1760,180,1800,236.8C1840,294,1880,343,1920,351.2C1960,359,2000,327,2040,334.8C2080,343,2120,392,2160,359.3C2200,327,2240,212,2280,171.5C2320,131,2360,163,2400,196C2440,229,2480,261,2520,236.8C2560,212,2600,131,2640,89.8C2680,49,2720,49,2760,114.3C2800,180,2840,310,2860,375.7L2880,441L2880,490L2860,490C2840,490,2800,490,2760,490C2720,490,2680,490,2640,490C2600,490,2560,490,2520,490C2480,490,2440,490,2400,490C2360,490,2320,490,2280,490C2240,490,2200,490,2160,490C2120,490,2080,490,2040,490C2000,490,1960,490,1920,490C1880,490,1840,490,1800,490C1760,490,1720,490,1680,490C1640,490,1600,490,1560,490C1520,490,1480,490,1440,490C1400,490,1360,490,1320,490C1280,490,1240,490,1200,490C1160,490,1120,490,1080,490C1040,490,1000,490,960,490C920,490,880,490,840,490C800,490,760,490,720,490C680,490,640,490,600,490C560,490,520,490,480,490C440,490,400,490,360,490C320,490,280,490,240,490C200,490,160,490,120,490C80,490,40,490,20,490L0,490Z"/></svg>